%TF.GenerationSoftware,KiCad,Pcbnew,8.0.6*%
%TF.CreationDate,2024-11-19T21:22:31+01:00*%
%TF.ProjectId,calc,63616c63-2e6b-4696-9361-645f70636258,rev?*%
%TF.SameCoordinates,Original*%
%TF.FileFunction,Soldermask,Bot*%
%TF.FilePolarity,Negative*%
%FSLAX46Y46*%
G04 Gerber Fmt 4.6, Leading zero omitted, Abs format (unit mm)*
G04 Created by KiCad (PCBNEW 8.0.6) date 2024-11-19 21:22:31*
%MOMM*%
%LPD*%
G01*
G04 APERTURE LIST*
G04 Aperture macros list*
%AMRoundRect*
0 Rectangle with rounded corners*
0 $1 Rounding radius*
0 $2 $3 $4 $5 $6 $7 $8 $9 X,Y pos of 4 corners*
0 Add a 4 corners polygon primitive as box body*
4,1,4,$2,$3,$4,$5,$6,$7,$8,$9,$2,$3,0*
0 Add four circle primitives for the rounded corners*
1,1,$1+$1,$2,$3*
1,1,$1+$1,$4,$5*
1,1,$1+$1,$6,$7*
1,1,$1+$1,$8,$9*
0 Add four rect primitives between the rounded corners*
20,1,$1+$1,$2,$3,$4,$5,0*
20,1,$1+$1,$4,$5,$6,$7,0*
20,1,$1+$1,$6,$7,$8,$9,0*
20,1,$1+$1,$8,$9,$2,$3,0*%
%AMFreePoly0*
4,1,28,0.605014,0.794986,0.644504,0.794986,0.724698,0.756366,0.780194,0.686777,0.800000,0.600000,0.800000,-0.600000,0.780194,-0.686777,0.724698,-0.756366,0.644504,-0.794986,0.605014,-0.794986,0.600000,-0.800000,0.000000,-0.800000,-0.178017,-0.779942,-0.347107,-0.720775,-0.498792,-0.625465,-0.625465,-0.498792,-0.720775,-0.347107,-0.779942,-0.178017,-0.800000,0.000000,-0.779942,0.178017,
-0.720775,0.347107,-0.625465,0.498792,-0.498792,0.625465,-0.347107,0.720775,-0.178017,0.779942,0.000000,0.800000,0.600000,0.800000,0.605014,0.794986,0.605014,0.794986,$1*%
%AMFreePoly1*
4,1,28,0.178017,0.779942,0.347107,0.720775,0.498792,0.625465,0.625465,0.498792,0.720775,0.347107,0.779942,0.178017,0.800000,0.000000,0.779942,-0.178017,0.720775,-0.347107,0.625465,-0.498792,0.498792,-0.625465,0.347107,-0.720775,0.178017,-0.779942,0.000000,-0.800000,-0.600000,-0.800000,-0.605014,-0.794986,-0.644504,-0.794986,-0.724698,-0.756366,-0.780194,-0.686777,-0.800000,-0.600000,
-0.800000,0.600000,-0.780194,0.686777,-0.724698,0.756366,-0.644504,0.794986,-0.605014,0.794986,-0.600000,0.800000,0.000000,0.800000,0.178017,0.779942,0.178017,0.779942,$1*%
G04 Aperture macros list end*
%ADD10R,2.200000X2.200000*%
%ADD11O,2.200000X2.200000*%
%ADD12C,1.750000*%
%ADD13C,4.000000*%
%ADD14C,2.250000*%
%ADD15R,1.700000X1.700000*%
%ADD16O,1.700000X1.700000*%
%ADD17R,1.600000X1.600000*%
%ADD18C,1.600000*%
%ADD19RoundRect,0.200000X0.600000X-0.600000X0.600000X0.600000X-0.600000X0.600000X-0.600000X-0.600000X0*%
%ADD20FreePoly0,90.000000*%
%ADD21FreePoly1,90.000000*%
%ADD22O,1.600000X1.600000*%
%ADD23C,1.524000*%
G04 APERTURE END LIST*
D10*
%TO.C,D2*%
X166370000Y-92075000D03*
D11*
X173990000Y-92075000D03*
%TD*%
D10*
%TO.C,D1*%
X147320000Y-92075000D03*
D11*
X154940000Y-92075000D03*
%TD*%
D10*
%TO.C,D38*%
X185420000Y-225425000D03*
D11*
X193040000Y-225425000D03*
%TD*%
D12*
%TO.C,SW25*%
X222250000Y-177800000D03*
D13*
X227330000Y-177800000D03*
D12*
X232410000Y-177800000D03*
D14*
X229870000Y-173990000D03*
X223520000Y-175260000D03*
%TD*%
D10*
%TO.C,D13*%
X185420000Y-130175000D03*
D11*
X193040000Y-130175000D03*
%TD*%
D12*
%TO.C,SW29*%
X203200000Y-196850000D03*
D13*
X208280000Y-196850000D03*
D12*
X213360000Y-196850000D03*
D14*
X210820000Y-193040000D03*
X204470000Y-194310000D03*
%TD*%
D10*
%TO.C,D24*%
X204470000Y-168275000D03*
D11*
X212090000Y-168275000D03*
%TD*%
D15*
%TO.C,J2*%
X152400000Y-36830000D03*
D16*
X152400000Y-39370000D03*
X152400000Y-41910000D03*
%TD*%
D12*
%TO.C,SW9*%
X203200000Y-120650000D03*
D13*
X208280000Y-120650000D03*
D12*
X213360000Y-120650000D03*
D14*
X210820000Y-116840000D03*
X204470000Y-118110000D03*
%TD*%
D12*
%TO.C,SW30*%
X222250000Y-196850000D03*
D13*
X227330000Y-196850000D03*
D12*
X232410000Y-196850000D03*
D14*
X229870000Y-193040000D03*
X223520000Y-194310000D03*
%TD*%
D15*
%TO.C,J1*%
X152400000Y-74930000D03*
D16*
X152400000Y-77470000D03*
X152400000Y-80010000D03*
%TD*%
D10*
%TO.C,D32*%
X166370000Y-206375000D03*
D11*
X173990000Y-206375000D03*
%TD*%
D10*
%TO.C,D9*%
X204470000Y-111125000D03*
D11*
X212090000Y-111125000D03*
%TD*%
D10*
%TO.C,D39*%
X204470000Y-225425000D03*
D11*
X212090000Y-225425000D03*
%TD*%
D12*
%TO.C,SW18*%
X184150000Y-158750000D03*
D13*
X189230000Y-158750000D03*
D12*
X194310000Y-158750000D03*
D14*
X191770000Y-154940000D03*
X185420000Y-156210000D03*
%TD*%
D10*
%TO.C,D16*%
X147320000Y-149225000D03*
D11*
X154940000Y-149225000D03*
%TD*%
D12*
%TO.C,SW7*%
X165100000Y-120650000D03*
D13*
X170180000Y-120650000D03*
D12*
X175260000Y-120650000D03*
D14*
X172720000Y-116840000D03*
X166370000Y-118110000D03*
%TD*%
D10*
%TO.C,D18*%
X185420000Y-149225000D03*
D11*
X193040000Y-149225000D03*
%TD*%
D10*
%TO.C,D6*%
X147320000Y-111125000D03*
D11*
X154940000Y-111125000D03*
%TD*%
D10*
%TO.C,D33*%
X185420000Y-206375000D03*
D11*
X193040000Y-206375000D03*
%TD*%
D10*
%TO.C,D29*%
X204470000Y-187325000D03*
D11*
X212090000Y-187325000D03*
%TD*%
D10*
%TO.C,D14*%
X204470000Y-130175000D03*
D11*
X212090000Y-130175000D03*
%TD*%
D12*
%TO.C,SW3*%
X184150000Y-101600000D03*
D13*
X189230000Y-101600000D03*
D12*
X194310000Y-101600000D03*
D14*
X191770000Y-97790000D03*
X185420000Y-99060000D03*
%TD*%
D10*
%TO.C,D37*%
X166370000Y-225425000D03*
D11*
X173990000Y-225425000D03*
%TD*%
D17*
%TO.C,C3*%
X189230000Y-31750000D03*
D18*
X186730000Y-31750000D03*
%TD*%
D12*
%TO.C,SW31*%
X146050000Y-215900000D03*
D13*
X151130000Y-215900000D03*
D12*
X156210000Y-215900000D03*
D14*
X153670000Y-212090000D03*
X147320000Y-213360000D03*
%TD*%
D10*
%TO.C,D17*%
X166370000Y-149225000D03*
D11*
X173990000Y-149225000D03*
%TD*%
D10*
%TO.C,D34*%
X204470000Y-206375000D03*
D11*
X212090000Y-206375000D03*
%TD*%
D17*
%TO.C,C5*%
X200595113Y-31750000D03*
D18*
X198095113Y-31750000D03*
%TD*%
D12*
%TO.C,SW28*%
X184150000Y-196850000D03*
D13*
X189230000Y-196850000D03*
D12*
X194310000Y-196850000D03*
D14*
X191770000Y-193040000D03*
X185420000Y-194310000D03*
%TD*%
D12*
%TO.C,SW27*%
X165100000Y-196850000D03*
D13*
X170180000Y-196850000D03*
D12*
X175260000Y-196850000D03*
D14*
X172720000Y-193040000D03*
X166370000Y-194310000D03*
%TD*%
D12*
%TO.C,SW38*%
X184150000Y-234950000D03*
D13*
X189230000Y-234950000D03*
D12*
X194310000Y-234950000D03*
D14*
X191770000Y-231140000D03*
X185420000Y-232410000D03*
%TD*%
D18*
%TO.C,C1*%
X191810000Y-28575000D03*
X194310000Y-28575000D03*
%TD*%
D12*
%TO.C,SW23*%
X184150000Y-177800000D03*
D13*
X189230000Y-177800000D03*
D12*
X194310000Y-177800000D03*
D14*
X191770000Y-173990000D03*
X185420000Y-175260000D03*
%TD*%
D12*
%TO.C,SW12*%
X165100000Y-139700000D03*
D13*
X170180000Y-139700000D03*
D12*
X175260000Y-139700000D03*
D14*
X172720000Y-135890000D03*
X166370000Y-137160000D03*
%TD*%
D12*
%TO.C,SW21*%
X146050000Y-177800000D03*
D13*
X151130000Y-177800000D03*
D12*
X156210000Y-177800000D03*
D14*
X153670000Y-173990000D03*
X147320000Y-175260000D03*
%TD*%
D12*
%TO.C,SW24*%
X203200000Y-177800000D03*
D13*
X208280000Y-177800000D03*
D12*
X213360000Y-177800000D03*
D14*
X210820000Y-173990000D03*
X204470000Y-175260000D03*
%TD*%
D10*
%TO.C,D26*%
X147320000Y-187325000D03*
D11*
X154940000Y-187325000D03*
%TD*%
D10*
%TO.C,D3*%
X185420000Y-92075000D03*
D11*
X193040000Y-92075000D03*
%TD*%
D10*
%TO.C,D25*%
X223520000Y-168275000D03*
D11*
X231140000Y-168275000D03*
%TD*%
D12*
%TO.C,SW20*%
X222250000Y-158750000D03*
D13*
X227330000Y-158750000D03*
D12*
X232410000Y-158750000D03*
D14*
X229870000Y-154940000D03*
X223520000Y-156210000D03*
%TD*%
D12*
%TO.C,SW37*%
X165100000Y-234950000D03*
D13*
X170180000Y-234950000D03*
D12*
X175260000Y-234950000D03*
D14*
X172720000Y-231140000D03*
X166370000Y-232410000D03*
%TD*%
D10*
%TO.C,D27*%
X166370000Y-187325000D03*
D11*
X173990000Y-187325000D03*
%TD*%
D10*
%TO.C,D12*%
X166370000Y-130175000D03*
D11*
X173990000Y-130175000D03*
%TD*%
D17*
%TO.C,C6*%
X210780000Y-42545000D03*
D18*
X208280000Y-42545000D03*
%TD*%
D12*
%TO.C,SW8*%
X184150000Y-120650000D03*
D13*
X189230000Y-120650000D03*
D12*
X194310000Y-120650000D03*
D14*
X191770000Y-116840000D03*
X185420000Y-118110000D03*
%TD*%
D12*
%TO.C,SW34*%
X203200000Y-215900000D03*
D13*
X208280000Y-215900000D03*
D12*
X213360000Y-215900000D03*
D14*
X210820000Y-212090000D03*
X204470000Y-213360000D03*
%TD*%
D17*
%TO.C,C7*%
X210755113Y-31750000D03*
D18*
X208255113Y-31750000D03*
%TD*%
D10*
%TO.C,D21*%
X147320000Y-168275000D03*
D11*
X154940000Y-168275000D03*
%TD*%
D12*
%TO.C,SW4*%
X203200000Y-101600000D03*
D13*
X208280000Y-101600000D03*
D12*
X213360000Y-101600000D03*
D14*
X210820000Y-97790000D03*
X204470000Y-99060000D03*
%TD*%
D10*
%TO.C,D22*%
X166370000Y-168275000D03*
D11*
X173990000Y-168275000D03*
%TD*%
D10*
%TO.C,D20*%
X223520000Y-149225000D03*
D11*
X231140000Y-149225000D03*
%TD*%
D10*
%TO.C,D8*%
X185420000Y-111125000D03*
D11*
X193040000Y-111125000D03*
%TD*%
D12*
%TO.C,SW2*%
X165100000Y-101600000D03*
D13*
X170180000Y-101600000D03*
D12*
X175260000Y-101600000D03*
D14*
X172720000Y-97790000D03*
X166370000Y-99060000D03*
%TD*%
D12*
%TO.C,SW22*%
X165100000Y-177800000D03*
D13*
X170180000Y-177800000D03*
D12*
X175260000Y-177800000D03*
D14*
X172720000Y-173990000D03*
X166370000Y-175260000D03*
%TD*%
D12*
%TO.C,SW1*%
X146050000Y-101600000D03*
D13*
X151130000Y-101600000D03*
D12*
X156210000Y-101600000D03*
D14*
X153670000Y-97790000D03*
X147320000Y-99060000D03*
%TD*%
D12*
%TO.C,SW15*%
X222250000Y-139700000D03*
D13*
X227330000Y-139700000D03*
D12*
X232410000Y-139700000D03*
D14*
X229870000Y-135890000D03*
X223520000Y-137160000D03*
%TD*%
D10*
%TO.C,D31*%
X147320000Y-206375000D03*
D11*
X154940000Y-206375000D03*
%TD*%
D10*
%TO.C,D5*%
X223520000Y-92075000D03*
D11*
X231140000Y-92075000D03*
%TD*%
D12*
%TO.C,SW36*%
X146050000Y-234950000D03*
D13*
X151130000Y-234950000D03*
D12*
X156210000Y-234950000D03*
D14*
X153670000Y-231140000D03*
X147320000Y-232410000D03*
%TD*%
D12*
%TO.C,SW32*%
X165100000Y-215900000D03*
D13*
X170180000Y-215900000D03*
D12*
X175260000Y-215900000D03*
D14*
X172720000Y-212090000D03*
X166370000Y-213360000D03*
%TD*%
D12*
%TO.C,SW13*%
X184150000Y-139700000D03*
D13*
X189230000Y-139700000D03*
D12*
X194310000Y-139700000D03*
D14*
X191770000Y-135890000D03*
X185420000Y-137160000D03*
%TD*%
D10*
%TO.C,D40*%
X223520000Y-225425000D03*
D11*
X231140000Y-225425000D03*
%TD*%
D10*
%TO.C,D23*%
X185420000Y-168275000D03*
D11*
X193040000Y-168275000D03*
%TD*%
D12*
%TO.C,SW19*%
X203200000Y-158750000D03*
D13*
X208280000Y-158750000D03*
D12*
X213360000Y-158750000D03*
D14*
X210820000Y-154940000D03*
X204470000Y-156210000D03*
%TD*%
D10*
%TO.C,D30*%
X223520000Y-187325000D03*
D11*
X231140000Y-187325000D03*
%TD*%
D12*
%TO.C,SW14*%
X203200000Y-139700000D03*
D13*
X208280000Y-139700000D03*
D12*
X213360000Y-139700000D03*
D14*
X210820000Y-135890000D03*
X204470000Y-137160000D03*
%TD*%
D12*
%TO.C,SW35*%
X222250000Y-215900000D03*
D13*
X227330000Y-215900000D03*
D12*
X232410000Y-215900000D03*
D14*
X229870000Y-212090000D03*
X223520000Y-213360000D03*
%TD*%
D10*
%TO.C,D15*%
X223520000Y-130175000D03*
D11*
X231140000Y-130175000D03*
%TD*%
D10*
%TO.C,D11*%
X147320000Y-130175000D03*
D11*
X154940000Y-130175000D03*
%TD*%
D10*
%TO.C,D19*%
X204470000Y-149225000D03*
D11*
X212090000Y-149225000D03*
%TD*%
D12*
%TO.C,SW40*%
X222250000Y-234950000D03*
D13*
X227330000Y-234950000D03*
D12*
X232410000Y-234950000D03*
D14*
X229870000Y-231140000D03*
X223520000Y-232410000D03*
%TD*%
D12*
%TO.C,SW16*%
X146050000Y-158750000D03*
D13*
X151130000Y-158750000D03*
D12*
X156210000Y-158750000D03*
D14*
X153670000Y-154940000D03*
X147320000Y-156210000D03*
%TD*%
D12*
%TO.C,SW5*%
X222250000Y-101600000D03*
D13*
X227330000Y-101600000D03*
D12*
X232410000Y-101600000D03*
D14*
X229870000Y-97790000D03*
X223520000Y-99060000D03*
%TD*%
D12*
%TO.C,SW10*%
X222250000Y-120650000D03*
D13*
X227330000Y-120650000D03*
D12*
X232410000Y-120650000D03*
D14*
X229870000Y-116840000D03*
X223520000Y-118110000D03*
%TD*%
D12*
%TO.C,SW39*%
X203200000Y-234950000D03*
D13*
X208280000Y-234950000D03*
D12*
X213360000Y-234950000D03*
D14*
X210820000Y-231140000D03*
X204470000Y-232410000D03*
%TD*%
D19*
%TO.C,A1*%
X143510000Y-67310000D03*
D18*
X146050000Y-67310000D03*
D20*
X148590000Y-67310000D03*
D18*
X151130000Y-67310000D03*
X153670000Y-67310000D03*
X156210000Y-67310000D03*
X158750000Y-67310000D03*
D20*
X161290000Y-67310000D03*
D18*
X163830000Y-67310000D03*
X166370000Y-67310000D03*
X168910000Y-67310000D03*
X171450000Y-67310000D03*
D20*
X173990000Y-67310000D03*
D18*
X176530000Y-67310000D03*
X179070000Y-67310000D03*
X181610000Y-67310000D03*
X184150000Y-67310000D03*
D20*
X186690000Y-67310000D03*
D18*
X189230000Y-67310000D03*
X191770000Y-67310000D03*
X191770000Y-49530000D03*
X189230000Y-49530000D03*
D21*
X186690000Y-49530000D03*
D18*
X184150000Y-49530000D03*
X181610000Y-49530000D03*
X179070000Y-49530000D03*
X176530000Y-49530000D03*
D21*
X173990000Y-49530000D03*
D18*
X171450000Y-49530000D03*
X168910000Y-49530000D03*
X166370000Y-49530000D03*
X163830000Y-49530000D03*
D21*
X161290000Y-49530000D03*
D18*
X158750000Y-49530000D03*
X156210000Y-49530000D03*
X153670000Y-49530000D03*
X151130000Y-49530000D03*
D21*
X148590000Y-49530000D03*
D18*
X146050000Y-49530000D03*
X143510000Y-49530000D03*
D19*
X173340000Y-57835900D03*
D18*
X173340000Y-55295900D03*
X173340000Y-52755900D03*
%TD*%
D10*
%TO.C,D28*%
X185420000Y-187325000D03*
D11*
X193040000Y-187325000D03*
%TD*%
D12*
%TO.C,SW11*%
X146050000Y-139700000D03*
D13*
X151130000Y-139700000D03*
D12*
X156210000Y-139700000D03*
D14*
X153670000Y-135890000D03*
X147320000Y-137160000D03*
%TD*%
D10*
%TO.C,D10*%
X223520000Y-111125000D03*
D11*
X231140000Y-111125000D03*
%TD*%
D12*
%TO.C,SW33*%
X184150000Y-215900000D03*
D13*
X189230000Y-215900000D03*
D12*
X194310000Y-215900000D03*
D14*
X191770000Y-212090000D03*
X185420000Y-213360000D03*
%TD*%
D10*
%TO.C,D7*%
X166370000Y-111125000D03*
D11*
X173990000Y-111125000D03*
%TD*%
D12*
%TO.C,SW26*%
X146050000Y-196850000D03*
D13*
X151130000Y-196850000D03*
D12*
X156210000Y-196850000D03*
D14*
X153670000Y-193040000D03*
X147320000Y-194310000D03*
%TD*%
D12*
%TO.C,SW17*%
X165100000Y-158750000D03*
D13*
X170180000Y-158750000D03*
D12*
X175260000Y-158750000D03*
D14*
X172720000Y-154940000D03*
X166370000Y-156210000D03*
%TD*%
D18*
%TO.C,R1*%
X194310000Y-39370000D03*
D22*
X194310000Y-31750000D03*
%TD*%
D15*
%TO.C,J3*%
X152400000Y-26670000D03*
D16*
X152400000Y-29210000D03*
X152400000Y-31750000D03*
%TD*%
D10*
%TO.C,D35*%
X223520000Y-206375000D03*
D11*
X231140000Y-206375000D03*
%TD*%
D18*
%TO.C,C2*%
X181610000Y-31750000D03*
X179110000Y-31750000D03*
%TD*%
D12*
%TO.C,SW6*%
X146050000Y-120650000D03*
D13*
X151130000Y-120650000D03*
D12*
X156210000Y-120650000D03*
D14*
X153670000Y-116840000D03*
X147320000Y-118110000D03*
%TD*%
D17*
%TO.C,C4*%
X200620000Y-42545000D03*
D18*
X198120000Y-42545000D03*
%TD*%
D10*
%TO.C,D36*%
X147320000Y-225425000D03*
D11*
X154940000Y-225425000D03*
%TD*%
D10*
%TO.C,D4*%
X204470000Y-92075000D03*
D11*
X212090000Y-92075000D03*
%TD*%
D23*
%TO.C,U1*%
X165100000Y-88900000D03*
X167640000Y-88900000D03*
X170180000Y-88900000D03*
X208280000Y-88900000D03*
X210820000Y-88900000D03*
X213360000Y-88900000D03*
X213360000Y-25400000D03*
X210820000Y-25400000D03*
X208280000Y-25400000D03*
X205740000Y-25400000D03*
X203200000Y-25400000D03*
X200660000Y-25400000D03*
X198120000Y-25400000D03*
X195580000Y-25400000D03*
X193040000Y-25400000D03*
X190500000Y-25400000D03*
X187960000Y-25400000D03*
X185420000Y-25400000D03*
X182880000Y-25400000D03*
X180340000Y-25400000D03*
X177800000Y-25400000D03*
X175260000Y-25400000D03*
X172720000Y-25400000D03*
X170180000Y-25400000D03*
X167640000Y-25400000D03*
X165100000Y-25400000D03*
%TD*%
M02*
