M48
; DRILL file {KiCad 8.0.6} date 2024-11-19T21:22:27+0100
; FORMAT={-:-/ absolute / inch / decimal}
; #@! TF.CreationDate,2024-11-19T21:22:27+01:00
; #@! TF.GenerationSoftware,Kicad,Pcbnew,8.0.6
; #@! TF.FileFunction,Plated,1,2,PTH
FMAT,2
INCH
; #@! TA.AperFunction,Plated,PTH,ViaDrill
T1C0.0118
; #@! TA.AperFunction,Plated,PTH,ViaDrill
T2C0.0197
; #@! TA.AperFunction,Plated,PTH,ComponentDrill
T3C0.0300
; #@! TA.AperFunction,Plated,PTH,ComponentDrill
T4C0.0315
; #@! TA.AperFunction,Plated,PTH,ComponentDrill
T5C0.0394
; #@! TA.AperFunction,Plated,PTH,ComponentDrill
T6C0.0433
; #@! TA.AperFunction,Plated,PTH,ComponentDrill
T7C0.0591
%
G90
G05
T1
X5.7Y-1.575
X5.7Y-1.65
X5.7Y-1.725
X5.7Y-1.8
X5.7Y-2.775
X5.7Y-2.85
X5.725Y-1.5
X5.75Y-2.9
X5.775Y-1.45
X5.825Y-1.4
X5.85Y-1.7
X5.85Y-1.775
X5.875Y-1.35
X5.875Y-1.625
X5.875Y-2.025
X5.925Y-1.3
X5.925Y-1.575
X5.925Y-2.075
X5.975Y-2.125
X6.1Y-1.775
X6.15Y-1.725
X6.175Y-3.275
X6.2Y-1.675
X6.2Y-1.825
X6.2Y-3.2
X6.225Y-3.125
X6.25Y-1.625
X6.25Y-1.775
X6.25Y-3.05
X6.3Y-1.575
X6.3Y-1.725
X6.35Y-1.525
X6.35Y-1.675
X6.4Y-1.475
X6.4Y-1.625
X6.45Y-1.425
X6.45Y-1.575
X6.5Y-1.375
X6.5Y-1.525
X6.55Y-1.325
X6.55Y-1.475
X6.6Y-1.275
X6.6Y-1.425
X6.65Y-1.375
X6.7Y-1.325
X6.925Y-1.275
X6.95Y-1.35
X7.05Y-1.7
X7.3Y-1.45
X7.3Y-1.55
X7.3Y-1.625
X7.35Y-1.125
X7.35Y-1.675
X7.4Y-1.075
X7.4Y-1.725
X7.45Y-1.775
T2
X6.7Y-1.25
T3
X6.5Y-1.0
X6.5Y-3.5
X6.6Y-1.0
X6.6Y-3.5
X6.7Y-1.0
X6.7Y-3.5
X6.8Y-1.0
X6.9Y-1.0
X7.0Y-1.0
X7.1Y-1.0
X7.2Y-1.0
X7.3Y-1.0
X7.4Y-1.0
X7.5Y-1.0
X7.6Y-1.0
X7.7Y-1.0
X7.8Y-1.0
X7.9Y-1.0
X8.0Y-1.0
X8.1Y-1.0
X8.2Y-1.0
X8.2Y-3.5
X8.3Y-1.0
X8.3Y-3.5
X8.4Y-1.0
X8.4Y-3.5
T4
X7.0516Y-1.25
X7.15Y-1.25
X7.3516Y-1.25
X7.45Y-1.25
X7.5516Y-1.125
X7.65Y-1.125
X7.65Y-1.25
X7.65Y-1.55
X7.799Y-1.25
X7.8Y-1.675
X7.8974Y-1.25
X7.8984Y-1.675
X8.199Y-1.25
X8.2Y-1.675
X8.2974Y-1.25
X8.2984Y-1.675
T5
X5.65Y-1.95
X5.65Y-2.65
X5.75Y-1.95
X5.75Y-2.65
X5.85Y-1.95
X5.85Y-2.65
X5.95Y-1.95
X5.95Y-2.65
X6.0Y-1.05
X6.0Y-1.15
X6.0Y-1.25
X6.0Y-1.45
X6.0Y-1.55
X6.0Y-1.65
X6.0Y-2.95
X6.0Y-3.05
X6.0Y-3.15
X6.05Y-1.95
X6.05Y-2.65
X6.15Y-1.95
X6.15Y-2.65
X6.25Y-1.95
X6.25Y-2.65
X6.35Y-1.95
X6.35Y-2.65
X6.45Y-1.95
X6.45Y-2.65
X6.55Y-1.95
X6.55Y-2.65
X6.65Y-1.95
X6.65Y-2.65
X6.75Y-1.95
X6.75Y-2.65
X6.8244Y-2.077
X6.8244Y-2.177
X6.8244Y-2.277
X6.85Y-1.95
X6.85Y-2.65
X6.95Y-1.95
X6.95Y-2.65
X7.05Y-1.95
X7.05Y-2.65
X7.15Y-1.95
X7.15Y-2.65
X7.25Y-1.95
X7.25Y-2.65
X7.35Y-1.95
X7.35Y-2.65
X7.45Y-1.95
X7.45Y-2.65
X7.55Y-1.95
X7.55Y-2.65
T6
X5.8Y-3.625
X5.8Y-4.375
X5.8Y-5.125
X5.8Y-5.875
X5.8Y-6.625
X5.8Y-7.375
X5.8Y-8.125
X5.8Y-8.875
X6.1Y-3.625
X6.1Y-4.375
X6.1Y-5.125
X6.1Y-5.875
X6.1Y-6.625
X6.1Y-7.375
X6.1Y-8.125
X6.1Y-8.875
X6.55Y-3.625
X6.55Y-4.375
X6.55Y-5.125
X6.55Y-5.875
X6.55Y-6.625
X6.55Y-7.375
X6.55Y-8.125
X6.55Y-8.875
X6.85Y-3.625
X6.85Y-4.375
X6.85Y-5.125
X6.85Y-5.875
X6.85Y-6.625
X6.85Y-7.375
X6.85Y-8.125
X6.85Y-8.875
X7.3Y-3.625
X7.3Y-4.375
X7.3Y-5.125
X7.3Y-5.875
X7.3Y-6.625
X7.3Y-7.375
X7.3Y-8.125
X7.3Y-8.875
X7.6Y-3.625
X7.6Y-4.375
X7.6Y-5.125
X7.6Y-5.875
X7.6Y-6.625
X7.6Y-7.375
X7.6Y-8.125
X7.6Y-8.875
X8.05Y-3.625
X8.05Y-4.375
X8.05Y-5.125
X8.05Y-5.875
X8.05Y-6.625
X8.05Y-7.375
X8.05Y-8.125
X8.05Y-8.875
X8.35Y-3.625
X8.35Y-4.375
X8.35Y-5.125
X8.35Y-5.875
X8.35Y-6.625
X8.35Y-7.375
X8.35Y-8.125
X8.35Y-8.875
X8.8Y-3.625
X8.8Y-4.375
X8.8Y-5.125
X8.8Y-5.875
X8.8Y-6.625
X8.8Y-7.375
X8.8Y-8.125
X8.8Y-8.875
X9.1Y-3.625
X9.1Y-4.375
X9.1Y-5.125
X9.1Y-5.875
X9.1Y-6.625
X9.1Y-7.375
X9.1Y-8.125
X9.1Y-8.875
T7
X5.8Y-3.9
X5.8Y-4.65
X5.8Y-5.4
X5.8Y-6.15
X5.8Y-6.9
X5.8Y-7.65
X5.8Y-8.4
X5.8Y-9.15
X6.05Y-3.85
X6.05Y-4.6
X6.05Y-5.35
X6.05Y-6.1
X6.05Y-6.85
X6.05Y-7.6
X6.05Y-8.35
X6.05Y-9.1
X6.55Y-3.9
X6.55Y-4.65
X6.55Y-5.4
X6.55Y-6.15
X6.55Y-6.9
X6.55Y-7.65
X6.55Y-8.4
X6.55Y-9.15
X6.8Y-3.85
X6.8Y-4.6
X6.8Y-5.35
X6.8Y-6.1
X6.8Y-6.85
X6.8Y-7.6
X6.8Y-8.35
X6.8Y-9.1
X7.3Y-3.9
X7.3Y-4.65
X7.3Y-5.4
X7.3Y-6.15
X7.3Y-6.9
X7.3Y-7.65
X7.3Y-8.4
X7.3Y-9.15
X7.55Y-3.85
X7.55Y-4.6
X7.55Y-5.35
X7.55Y-6.1
X7.55Y-6.85
X7.55Y-7.6
X7.55Y-8.35
X7.55Y-9.1
X8.05Y-3.9
X8.05Y-4.65
X8.05Y-5.4
X8.05Y-6.15
X8.05Y-6.9
X8.05Y-7.65
X8.05Y-8.4
X8.05Y-9.15
X8.3Y-3.85
X8.3Y-4.6
X8.3Y-5.35
X8.3Y-6.1
X8.3Y-6.85
X8.3Y-7.6
X8.3Y-8.35
X8.3Y-9.1
X8.8Y-3.9
X8.8Y-4.65
X8.8Y-5.4
X8.8Y-6.15
X8.8Y-6.9
X8.8Y-7.65
X8.8Y-8.4
X8.8Y-9.15
X9.05Y-3.85
X9.05Y-4.6
X9.05Y-5.35
X9.05Y-6.1
X9.05Y-6.85
X9.05Y-7.6
X9.05Y-8.35
X9.05Y-9.1
M30
