M48
; DRILL file {KiCad 8.0.6} date 2024-11-19T21:22:27+0100
; FORMAT={-:-/ absolute / inch / decimal}
; #@! TF.CreationDate,2024-11-19T21:22:27+01:00
; #@! TF.GenerationSoftware,Kicad,Pcbnew,8.0.6
; #@! TF.FileFunction,NonPlated,1,2,NPTH
FMAT,2
INCH
; #@! TA.AperFunction,NonPlated,NPTH,ComponentDrill
T1C0.0689
; #@! TA.AperFunction,NonPlated,NPTH,ComponentDrill
T2C0.1575
%
G90
G05
T1
X5.75Y-4.0
X5.75Y-4.75
X5.75Y-5.5
X5.75Y-6.25
X5.75Y-7.0
X5.75Y-7.75
X5.75Y-8.5
X5.75Y-9.25
X6.15Y-4.0
X6.15Y-4.75
X6.15Y-5.5
X6.15Y-6.25
X6.15Y-7.0
X6.15Y-7.75
X6.15Y-8.5
X6.15Y-9.25
X6.5Y-4.0
X6.5Y-4.75
X6.5Y-5.5
X6.5Y-6.25
X6.5Y-7.0
X6.5Y-7.75
X6.5Y-8.5
X6.5Y-9.25
X6.9Y-4.0
X6.9Y-4.75
X6.9Y-5.5
X6.9Y-6.25
X6.9Y-7.0
X6.9Y-7.75
X6.9Y-8.5
X6.9Y-9.25
X7.25Y-4.0
X7.25Y-4.75
X7.25Y-5.5
X7.25Y-6.25
X7.25Y-7.0
X7.25Y-7.75
X7.25Y-8.5
X7.25Y-9.25
X7.65Y-4.0
X7.65Y-4.75
X7.65Y-5.5
X7.65Y-6.25
X7.65Y-7.0
X7.65Y-7.75
X7.65Y-8.5
X7.65Y-9.25
X8.0Y-4.0
X8.0Y-4.75
X8.0Y-5.5
X8.0Y-6.25
X8.0Y-7.0
X8.0Y-7.75
X8.0Y-8.5
X8.0Y-9.25
X8.4Y-4.0
X8.4Y-4.75
X8.4Y-5.5
X8.4Y-6.25
X8.4Y-7.0
X8.4Y-7.75
X8.4Y-8.5
X8.4Y-9.25
X8.75Y-4.0
X8.75Y-4.75
X8.75Y-5.5
X8.75Y-6.25
X8.75Y-7.0
X8.75Y-7.75
X8.75Y-8.5
X8.75Y-9.25
X9.15Y-4.0
X9.15Y-4.75
X9.15Y-5.5
X9.15Y-6.25
X9.15Y-7.0
X9.15Y-7.75
X9.15Y-8.5
X9.15Y-9.25
T2
X5.95Y-4.0
X5.95Y-4.75
X5.95Y-5.5
X5.95Y-6.25
X5.95Y-7.0
X5.95Y-7.75
X5.95Y-8.5
X5.95Y-9.25
X6.7Y-4.0
X6.7Y-4.75
X6.7Y-5.5
X6.7Y-6.25
X6.7Y-7.0
X6.7Y-7.75
X6.7Y-8.5
X6.7Y-9.25
X7.45Y-4.0
X7.45Y-4.75
X7.45Y-5.5
X7.45Y-6.25
X7.45Y-7.0
X7.45Y-7.75
X7.45Y-8.5
X7.45Y-9.25
X8.2Y-4.0
X8.2Y-4.75
X8.2Y-5.5
X8.2Y-6.25
X8.2Y-7.0
X8.2Y-7.75
X8.2Y-8.5
X8.2Y-9.25
X8.95Y-4.0
X8.95Y-4.75
X8.95Y-5.5
X8.95Y-6.25
X8.95Y-7.0
X8.95Y-7.75
X8.95Y-8.5
X8.95Y-9.25
M30
