%TF.GenerationSoftware,KiCad,Pcbnew,8.0.6*%
%TF.CreationDate,2024-11-19T21:22:31+01:00*%
%TF.ProjectId,calc,63616c63-2e6b-4696-9361-645f70636258,rev?*%
%TF.SameCoordinates,Original*%
%TF.FileFunction,Legend,Bot*%
%TF.FilePolarity,Positive*%
%FSLAX46Y46*%
G04 Gerber Fmt 4.6, Leading zero omitted, Abs format (unit mm)*
G04 Created by KiCad (PCBNEW 8.0.6) date 2024-11-19 21:22:31*
%MOMM*%
%LPD*%
G01*
G04 APERTURE LIST*
%ADD10C,0.100000*%
G04 APERTURE END LIST*
D10*
X233439687Y-28012236D02*
X233487306Y-28059856D01*
X233487306Y-28059856D02*
X233630163Y-28107475D01*
X233630163Y-28107475D02*
X233725401Y-28107475D01*
X233725401Y-28107475D02*
X233868258Y-28059856D01*
X233868258Y-28059856D02*
X233963496Y-27964617D01*
X233963496Y-27964617D02*
X234011115Y-27869379D01*
X234011115Y-27869379D02*
X234058734Y-27678903D01*
X234058734Y-27678903D02*
X234058734Y-27536046D01*
X234058734Y-27536046D02*
X234011115Y-27345570D01*
X234011115Y-27345570D02*
X233963496Y-27250332D01*
X233963496Y-27250332D02*
X233868258Y-27155094D01*
X233868258Y-27155094D02*
X233725401Y-27107475D01*
X233725401Y-27107475D02*
X233630163Y-27107475D01*
X233630163Y-27107475D02*
X233487306Y-27155094D01*
X233487306Y-27155094D02*
X233439687Y-27202713D01*
X232582544Y-28107475D02*
X232582544Y-27583665D01*
X232582544Y-27583665D02*
X232630163Y-27488427D01*
X232630163Y-27488427D02*
X232725401Y-27440808D01*
X232725401Y-27440808D02*
X232915877Y-27440808D01*
X232915877Y-27440808D02*
X233011115Y-27488427D01*
X232582544Y-28059856D02*
X232677782Y-28107475D01*
X232677782Y-28107475D02*
X232915877Y-28107475D01*
X232915877Y-28107475D02*
X233011115Y-28059856D01*
X233011115Y-28059856D02*
X233058734Y-27964617D01*
X233058734Y-27964617D02*
X233058734Y-27869379D01*
X233058734Y-27869379D02*
X233011115Y-27774141D01*
X233011115Y-27774141D02*
X232915877Y-27726522D01*
X232915877Y-27726522D02*
X232677782Y-27726522D01*
X232677782Y-27726522D02*
X232582544Y-27678903D01*
X231963496Y-28107475D02*
X232058734Y-28059856D01*
X232058734Y-28059856D02*
X232106353Y-27964617D01*
X232106353Y-27964617D02*
X232106353Y-27107475D01*
X231153972Y-28059856D02*
X231249210Y-28107475D01*
X231249210Y-28107475D02*
X231439686Y-28107475D01*
X231439686Y-28107475D02*
X231534924Y-28059856D01*
X231534924Y-28059856D02*
X231582543Y-28012236D01*
X231582543Y-28012236D02*
X231630162Y-27916998D01*
X231630162Y-27916998D02*
X231630162Y-27631284D01*
X231630162Y-27631284D02*
X231582543Y-27536046D01*
X231582543Y-27536046D02*
X231534924Y-27488427D01*
X231534924Y-27488427D02*
X231439686Y-27440808D01*
X231439686Y-27440808D02*
X231249210Y-27440808D01*
X231249210Y-27440808D02*
X231153972Y-27488427D01*
X230296829Y-27440808D02*
X230296829Y-28107475D01*
X230725400Y-27440808D02*
X230725400Y-27964617D01*
X230725400Y-27964617D02*
X230677781Y-28059856D01*
X230677781Y-28059856D02*
X230582543Y-28107475D01*
X230582543Y-28107475D02*
X230439686Y-28107475D01*
X230439686Y-28107475D02*
X230344448Y-28059856D01*
X230344448Y-28059856D02*
X230296829Y-28012236D01*
X229677781Y-28107475D02*
X229773019Y-28059856D01*
X229773019Y-28059856D02*
X229820638Y-27964617D01*
X229820638Y-27964617D02*
X229820638Y-27107475D01*
X228868257Y-28107475D02*
X228868257Y-27583665D01*
X228868257Y-27583665D02*
X228915876Y-27488427D01*
X228915876Y-27488427D02*
X229011114Y-27440808D01*
X229011114Y-27440808D02*
X229201590Y-27440808D01*
X229201590Y-27440808D02*
X229296828Y-27488427D01*
X228868257Y-28059856D02*
X228963495Y-28107475D01*
X228963495Y-28107475D02*
X229201590Y-28107475D01*
X229201590Y-28107475D02*
X229296828Y-28059856D01*
X229296828Y-28059856D02*
X229344447Y-27964617D01*
X229344447Y-27964617D02*
X229344447Y-27869379D01*
X229344447Y-27869379D02*
X229296828Y-27774141D01*
X229296828Y-27774141D02*
X229201590Y-27726522D01*
X229201590Y-27726522D02*
X228963495Y-27726522D01*
X228963495Y-27726522D02*
X228868257Y-27678903D01*
X228534923Y-27440808D02*
X228153971Y-27440808D01*
X228392066Y-27107475D02*
X228392066Y-27964617D01*
X228392066Y-27964617D02*
X228344447Y-28059856D01*
X228344447Y-28059856D02*
X228249209Y-28107475D01*
X228249209Y-28107475D02*
X228153971Y-28107475D01*
X227677780Y-28107475D02*
X227773018Y-28059856D01*
X227773018Y-28059856D02*
X227820637Y-28012236D01*
X227820637Y-28012236D02*
X227868256Y-27916998D01*
X227868256Y-27916998D02*
X227868256Y-27631284D01*
X227868256Y-27631284D02*
X227820637Y-27536046D01*
X227820637Y-27536046D02*
X227773018Y-27488427D01*
X227773018Y-27488427D02*
X227677780Y-27440808D01*
X227677780Y-27440808D02*
X227534923Y-27440808D01*
X227534923Y-27440808D02*
X227439685Y-27488427D01*
X227439685Y-27488427D02*
X227392066Y-27536046D01*
X227392066Y-27536046D02*
X227344447Y-27631284D01*
X227344447Y-27631284D02*
X227344447Y-27916998D01*
X227344447Y-27916998D02*
X227392066Y-28012236D01*
X227392066Y-28012236D02*
X227439685Y-28059856D01*
X227439685Y-28059856D02*
X227534923Y-28107475D01*
X227534923Y-28107475D02*
X227677780Y-28107475D01*
X226915875Y-28107475D02*
X226915875Y-27440808D01*
X226915875Y-27631284D02*
X226868256Y-27536046D01*
X226868256Y-27536046D02*
X226820637Y-27488427D01*
X226820637Y-27488427D02*
X226725399Y-27440808D01*
X226725399Y-27440808D02*
X226630161Y-27440808D01*
X224963494Y-28107475D02*
X225296827Y-27631284D01*
X225534922Y-28107475D02*
X225534922Y-27107475D01*
X225534922Y-27107475D02*
X225153970Y-27107475D01*
X225153970Y-27107475D02*
X225058732Y-27155094D01*
X225058732Y-27155094D02*
X225011113Y-27202713D01*
X225011113Y-27202713D02*
X224963494Y-27297951D01*
X224963494Y-27297951D02*
X224963494Y-27440808D01*
X224963494Y-27440808D02*
X225011113Y-27536046D01*
X225011113Y-27536046D02*
X225058732Y-27583665D01*
X225058732Y-27583665D02*
X225153970Y-27631284D01*
X225153970Y-27631284D02*
X225534922Y-27631284D01*
X224153970Y-28059856D02*
X224249208Y-28107475D01*
X224249208Y-28107475D02*
X224439684Y-28107475D01*
X224439684Y-28107475D02*
X224534922Y-28059856D01*
X224534922Y-28059856D02*
X224582541Y-27964617D01*
X224582541Y-27964617D02*
X224582541Y-27583665D01*
X224582541Y-27583665D02*
X224534922Y-27488427D01*
X224534922Y-27488427D02*
X224439684Y-27440808D01*
X224439684Y-27440808D02*
X224249208Y-27440808D01*
X224249208Y-27440808D02*
X224153970Y-27488427D01*
X224153970Y-27488427D02*
X224106351Y-27583665D01*
X224106351Y-27583665D02*
X224106351Y-27678903D01*
X224106351Y-27678903D02*
X224582541Y-27774141D01*
X223773017Y-27440808D02*
X223534922Y-28107475D01*
X223534922Y-28107475D02*
X223296827Y-27440808D01*
X221630160Y-28107475D02*
X222201588Y-28107475D01*
X221915874Y-28107475D02*
X221915874Y-27107475D01*
X221915874Y-27107475D02*
X222011112Y-27250332D01*
X222011112Y-27250332D02*
X222106350Y-27345570D01*
X222106350Y-27345570D02*
X222201588Y-27393189D01*
X221201588Y-28012236D02*
X221153969Y-28059856D01*
X221153969Y-28059856D02*
X221201588Y-28107475D01*
X221201588Y-28107475D02*
X221249207Y-28059856D01*
X221249207Y-28059856D02*
X221201588Y-28012236D01*
X221201588Y-28012236D02*
X221201588Y-28107475D01*
X220534922Y-27107475D02*
X220439684Y-27107475D01*
X220439684Y-27107475D02*
X220344446Y-27155094D01*
X220344446Y-27155094D02*
X220296827Y-27202713D01*
X220296827Y-27202713D02*
X220249208Y-27297951D01*
X220249208Y-27297951D02*
X220201589Y-27488427D01*
X220201589Y-27488427D02*
X220201589Y-27726522D01*
X220201589Y-27726522D02*
X220249208Y-27916998D01*
X220249208Y-27916998D02*
X220296827Y-28012236D01*
X220296827Y-28012236D02*
X220344446Y-28059856D01*
X220344446Y-28059856D02*
X220439684Y-28107475D01*
X220439684Y-28107475D02*
X220534922Y-28107475D01*
X220534922Y-28107475D02*
X220630160Y-28059856D01*
X220630160Y-28059856D02*
X220677779Y-28012236D01*
X220677779Y-28012236D02*
X220725398Y-27916998D01*
X220725398Y-27916998D02*
X220773017Y-27726522D01*
X220773017Y-27726522D02*
X220773017Y-27488427D01*
X220773017Y-27488427D02*
X220725398Y-27297951D01*
X220725398Y-27297951D02*
X220677779Y-27202713D01*
X220677779Y-27202713D02*
X220630160Y-27155094D01*
X220630160Y-27155094D02*
X220534922Y-27107475D01*
X233677782Y-29193609D02*
X234011115Y-29193609D01*
X234011115Y-29717419D02*
X234011115Y-28717419D01*
X234011115Y-28717419D02*
X233534925Y-28717419D01*
X233011115Y-29717419D02*
X233106353Y-29669800D01*
X233106353Y-29669800D02*
X233153972Y-29574561D01*
X233153972Y-29574561D02*
X233153972Y-28717419D01*
X232201591Y-29717419D02*
X232201591Y-29193609D01*
X232201591Y-29193609D02*
X232249210Y-29098371D01*
X232249210Y-29098371D02*
X232344448Y-29050752D01*
X232344448Y-29050752D02*
X232534924Y-29050752D01*
X232534924Y-29050752D02*
X232630162Y-29098371D01*
X232201591Y-29669800D02*
X232296829Y-29717419D01*
X232296829Y-29717419D02*
X232534924Y-29717419D01*
X232534924Y-29717419D02*
X232630162Y-29669800D01*
X232630162Y-29669800D02*
X232677781Y-29574561D01*
X232677781Y-29574561D02*
X232677781Y-29479323D01*
X232677781Y-29479323D02*
X232630162Y-29384085D01*
X232630162Y-29384085D02*
X232534924Y-29336466D01*
X232534924Y-29336466D02*
X232296829Y-29336466D01*
X232296829Y-29336466D02*
X232201591Y-29288847D01*
X231820638Y-29050752D02*
X231582543Y-29717419D01*
X231582543Y-29717419D02*
X231344448Y-29050752D01*
X230963495Y-29717419D02*
X230963495Y-29050752D01*
X230963495Y-28717419D02*
X231011114Y-28765038D01*
X231011114Y-28765038D02*
X230963495Y-28812657D01*
X230963495Y-28812657D02*
X230915876Y-28765038D01*
X230915876Y-28765038D02*
X230963495Y-28717419D01*
X230963495Y-28717419D02*
X230963495Y-28812657D01*
X230058734Y-29717419D02*
X230058734Y-29193609D01*
X230058734Y-29193609D02*
X230106353Y-29098371D01*
X230106353Y-29098371D02*
X230201591Y-29050752D01*
X230201591Y-29050752D02*
X230392067Y-29050752D01*
X230392067Y-29050752D02*
X230487305Y-29098371D01*
X230058734Y-29669800D02*
X230153972Y-29717419D01*
X230153972Y-29717419D02*
X230392067Y-29717419D01*
X230392067Y-29717419D02*
X230487305Y-29669800D01*
X230487305Y-29669800D02*
X230534924Y-29574561D01*
X230534924Y-29574561D02*
X230534924Y-29479323D01*
X230534924Y-29479323D02*
X230487305Y-29384085D01*
X230487305Y-29384085D02*
X230392067Y-29336466D01*
X230392067Y-29336466D02*
X230153972Y-29336466D01*
X230153972Y-29336466D02*
X230058734Y-29288847D01*
X229582543Y-29050752D02*
X229582543Y-29717419D01*
X229582543Y-29145990D02*
X229534924Y-29098371D01*
X229534924Y-29098371D02*
X229439686Y-29050752D01*
X229439686Y-29050752D02*
X229296829Y-29050752D01*
X229296829Y-29050752D02*
X229201591Y-29098371D01*
X229201591Y-29098371D02*
X229153972Y-29193609D01*
X229153972Y-29193609D02*
X229153972Y-29717419D01*
X227915876Y-29717419D02*
X227915876Y-28717419D01*
X227344448Y-29717419D02*
X227773019Y-29145990D01*
X227344448Y-28717419D02*
X227915876Y-29288847D01*
X226487305Y-29717419D02*
X226487305Y-29193609D01*
X226487305Y-29193609D02*
X226534924Y-29098371D01*
X226534924Y-29098371D02*
X226630162Y-29050752D01*
X226630162Y-29050752D02*
X226820638Y-29050752D01*
X226820638Y-29050752D02*
X226915876Y-29098371D01*
X226487305Y-29669800D02*
X226582543Y-29717419D01*
X226582543Y-29717419D02*
X226820638Y-29717419D01*
X226820638Y-29717419D02*
X226915876Y-29669800D01*
X226915876Y-29669800D02*
X226963495Y-29574561D01*
X226963495Y-29574561D02*
X226963495Y-29479323D01*
X226963495Y-29479323D02*
X226915876Y-29384085D01*
X226915876Y-29384085D02*
X226820638Y-29336466D01*
X226820638Y-29336466D02*
X226582543Y-29336466D01*
X226582543Y-29336466D02*
X226487305Y-29288847D01*
X225582543Y-29050752D02*
X225582543Y-29717419D01*
X226011114Y-29050752D02*
X226011114Y-29574561D01*
X226011114Y-29574561D02*
X225963495Y-29669800D01*
X225963495Y-29669800D02*
X225868257Y-29717419D01*
X225868257Y-29717419D02*
X225725400Y-29717419D01*
X225725400Y-29717419D02*
X225630162Y-29669800D01*
X225630162Y-29669800D02*
X225582543Y-29622180D01*
X225249209Y-29050752D02*
X224868257Y-29050752D01*
X225106352Y-29717419D02*
X225106352Y-28860276D01*
X225106352Y-28860276D02*
X225058733Y-28765038D01*
X225058733Y-28765038D02*
X224963495Y-28717419D01*
X224963495Y-28717419D02*
X224868257Y-28717419D01*
X224534923Y-29717419D02*
X224534923Y-29050752D01*
X224534923Y-29145990D02*
X224487304Y-29098371D01*
X224487304Y-29098371D02*
X224392066Y-29050752D01*
X224392066Y-29050752D02*
X224249209Y-29050752D01*
X224249209Y-29050752D02*
X224153971Y-29098371D01*
X224153971Y-29098371D02*
X224106352Y-29193609D01*
X224106352Y-29193609D02*
X224106352Y-29717419D01*
X224106352Y-29193609D02*
X224058733Y-29098371D01*
X224058733Y-29098371D02*
X223963495Y-29050752D01*
X223963495Y-29050752D02*
X223820638Y-29050752D01*
X223820638Y-29050752D02*
X223725399Y-29098371D01*
X223725399Y-29098371D02*
X223677780Y-29193609D01*
X223677780Y-29193609D02*
X223677780Y-29717419D01*
X222773019Y-29717419D02*
X222773019Y-29193609D01*
X222773019Y-29193609D02*
X222820638Y-29098371D01*
X222820638Y-29098371D02*
X222915876Y-29050752D01*
X222915876Y-29050752D02*
X223106352Y-29050752D01*
X223106352Y-29050752D02*
X223201590Y-29098371D01*
X222773019Y-29669800D02*
X222868257Y-29717419D01*
X222868257Y-29717419D02*
X223106352Y-29717419D01*
X223106352Y-29717419D02*
X223201590Y-29669800D01*
X223201590Y-29669800D02*
X223249209Y-29574561D01*
X223249209Y-29574561D02*
X223249209Y-29479323D01*
X223249209Y-29479323D02*
X223201590Y-29384085D01*
X223201590Y-29384085D02*
X223106352Y-29336466D01*
X223106352Y-29336466D02*
X222868257Y-29336466D01*
X222868257Y-29336466D02*
X222773019Y-29288847D01*
X222296828Y-29050752D02*
X222296828Y-29717419D01*
X222296828Y-29145990D02*
X222249209Y-29098371D01*
X222249209Y-29098371D02*
X222153971Y-29050752D01*
X222153971Y-29050752D02*
X222011114Y-29050752D01*
X222011114Y-29050752D02*
X221915876Y-29098371D01*
X221915876Y-29098371D02*
X221868257Y-29193609D01*
X221868257Y-29193609D02*
X221868257Y-29717419D01*
X221392066Y-29050752D02*
X221392066Y-29717419D01*
X221392066Y-29145990D02*
X221344447Y-29098371D01*
X221344447Y-29098371D02*
X221249209Y-29050752D01*
X221249209Y-29050752D02*
X221106352Y-29050752D01*
X221106352Y-29050752D02*
X221011114Y-29098371D01*
X221011114Y-29098371D02*
X220963495Y-29193609D01*
X220963495Y-29193609D02*
X220963495Y-29717419D01*
X144587306Y-79565038D02*
X144682544Y-79517419D01*
X144682544Y-79517419D02*
X144825401Y-79517419D01*
X144825401Y-79517419D02*
X144968258Y-79565038D01*
X144968258Y-79565038D02*
X145063496Y-79660276D01*
X145063496Y-79660276D02*
X145111115Y-79755514D01*
X145111115Y-79755514D02*
X145158734Y-79945990D01*
X145158734Y-79945990D02*
X145158734Y-80088847D01*
X145158734Y-80088847D02*
X145111115Y-80279323D01*
X145111115Y-80279323D02*
X145063496Y-80374561D01*
X145063496Y-80374561D02*
X144968258Y-80469800D01*
X144968258Y-80469800D02*
X144825401Y-80517419D01*
X144825401Y-80517419D02*
X144730163Y-80517419D01*
X144730163Y-80517419D02*
X144587306Y-80469800D01*
X144587306Y-80469800D02*
X144539687Y-80422180D01*
X144539687Y-80422180D02*
X144539687Y-80088847D01*
X144539687Y-80088847D02*
X144730163Y-80088847D01*
X144111115Y-80517419D02*
X144111115Y-79517419D01*
X144111115Y-79517419D02*
X143539687Y-80517419D01*
X143539687Y-80517419D02*
X143539687Y-79517419D01*
X143063496Y-80517419D02*
X143063496Y-79517419D01*
X143063496Y-79517419D02*
X142825401Y-79517419D01*
X142825401Y-79517419D02*
X142682544Y-79565038D01*
X142682544Y-79565038D02*
X142587306Y-79660276D01*
X142587306Y-79660276D02*
X142539687Y-79755514D01*
X142539687Y-79755514D02*
X142492068Y-79945990D01*
X142492068Y-79945990D02*
X142492068Y-80088847D01*
X142492068Y-80088847D02*
X142539687Y-80279323D01*
X142539687Y-80279323D02*
X142587306Y-80374561D01*
X142587306Y-80374561D02*
X142682544Y-80469800D01*
X142682544Y-80469800D02*
X142825401Y-80517419D01*
X142825401Y-80517419D02*
X143063496Y-80517419D01*
X144539687Y-77977419D02*
X144873020Y-77501228D01*
X145111115Y-77977419D02*
X145111115Y-76977419D01*
X145111115Y-76977419D02*
X144730163Y-76977419D01*
X144730163Y-76977419D02*
X144634925Y-77025038D01*
X144634925Y-77025038D02*
X144587306Y-77072657D01*
X144587306Y-77072657D02*
X144539687Y-77167895D01*
X144539687Y-77167895D02*
X144539687Y-77310752D01*
X144539687Y-77310752D02*
X144587306Y-77405990D01*
X144587306Y-77405990D02*
X144634925Y-77453609D01*
X144634925Y-77453609D02*
X144730163Y-77501228D01*
X144730163Y-77501228D02*
X145111115Y-77501228D01*
X144206353Y-76977419D02*
X143539687Y-77977419D01*
X143539687Y-76977419D02*
X144206353Y-77977419D01*
X145253972Y-74437419D02*
X144682544Y-74437419D01*
X144968258Y-75437419D02*
X144968258Y-74437419D01*
X144444448Y-74437419D02*
X143777782Y-75437419D01*
X143777782Y-74437419D02*
X144444448Y-75437419D01*
X146492306Y-41465038D02*
X146587544Y-41417419D01*
X146587544Y-41417419D02*
X146730401Y-41417419D01*
X146730401Y-41417419D02*
X146873258Y-41465038D01*
X146873258Y-41465038D02*
X146968496Y-41560276D01*
X146968496Y-41560276D02*
X147016115Y-41655514D01*
X147016115Y-41655514D02*
X147063734Y-41845990D01*
X147063734Y-41845990D02*
X147063734Y-41988847D01*
X147063734Y-41988847D02*
X147016115Y-42179323D01*
X147016115Y-42179323D02*
X146968496Y-42274561D01*
X146968496Y-42274561D02*
X146873258Y-42369800D01*
X146873258Y-42369800D02*
X146730401Y-42417419D01*
X146730401Y-42417419D02*
X146635163Y-42417419D01*
X146635163Y-42417419D02*
X146492306Y-42369800D01*
X146492306Y-42369800D02*
X146444687Y-42322180D01*
X146444687Y-42322180D02*
X146444687Y-41988847D01*
X146444687Y-41988847D02*
X146635163Y-41988847D01*
X146016115Y-42417419D02*
X146016115Y-41417419D01*
X146016115Y-41417419D02*
X145444687Y-42417419D01*
X145444687Y-42417419D02*
X145444687Y-41417419D01*
X144968496Y-42417419D02*
X144968496Y-41417419D01*
X144968496Y-41417419D02*
X144730401Y-41417419D01*
X144730401Y-41417419D02*
X144587544Y-41465038D01*
X144587544Y-41465038D02*
X144492306Y-41560276D01*
X144492306Y-41560276D02*
X144444687Y-41655514D01*
X144444687Y-41655514D02*
X144397068Y-41845990D01*
X144397068Y-41845990D02*
X144397068Y-41988847D01*
X144397068Y-41988847D02*
X144444687Y-42179323D01*
X144444687Y-42179323D02*
X144492306Y-42274561D01*
X144492306Y-42274561D02*
X144587544Y-42369800D01*
X144587544Y-42369800D02*
X144730401Y-42417419D01*
X144730401Y-42417419D02*
X144968496Y-42417419D01*
X147063734Y-39829800D02*
X146920877Y-39877419D01*
X146920877Y-39877419D02*
X146682782Y-39877419D01*
X146682782Y-39877419D02*
X146587544Y-39829800D01*
X146587544Y-39829800D02*
X146539925Y-39782180D01*
X146539925Y-39782180D02*
X146492306Y-39686942D01*
X146492306Y-39686942D02*
X146492306Y-39591704D01*
X146492306Y-39591704D02*
X146539925Y-39496466D01*
X146539925Y-39496466D02*
X146587544Y-39448847D01*
X146587544Y-39448847D02*
X146682782Y-39401228D01*
X146682782Y-39401228D02*
X146873258Y-39353609D01*
X146873258Y-39353609D02*
X146968496Y-39305990D01*
X146968496Y-39305990D02*
X147016115Y-39258371D01*
X147016115Y-39258371D02*
X147063734Y-39163133D01*
X147063734Y-39163133D02*
X147063734Y-39067895D01*
X147063734Y-39067895D02*
X147016115Y-38972657D01*
X147016115Y-38972657D02*
X146968496Y-38925038D01*
X146968496Y-38925038D02*
X146873258Y-38877419D01*
X146873258Y-38877419D02*
X146635163Y-38877419D01*
X146635163Y-38877419D02*
X146492306Y-38925038D01*
X146158972Y-38877419D02*
X145920877Y-39877419D01*
X145920877Y-39877419D02*
X145730401Y-39163133D01*
X145730401Y-39163133D02*
X145539925Y-39877419D01*
X145539925Y-39877419D02*
X145301830Y-38877419D01*
X144920877Y-39877419D02*
X144920877Y-38877419D01*
X144920877Y-38877419D02*
X144682782Y-38877419D01*
X144682782Y-38877419D02*
X144539925Y-38925038D01*
X144539925Y-38925038D02*
X144444687Y-39020276D01*
X144444687Y-39020276D02*
X144397068Y-39115514D01*
X144397068Y-39115514D02*
X144349449Y-39305990D01*
X144349449Y-39305990D02*
X144349449Y-39448847D01*
X144349449Y-39448847D02*
X144397068Y-39639323D01*
X144397068Y-39639323D02*
X144444687Y-39734561D01*
X144444687Y-39734561D02*
X144539925Y-39829800D01*
X144539925Y-39829800D02*
X144682782Y-39877419D01*
X144682782Y-39877419D02*
X144920877Y-39877419D01*
X143920877Y-39877419D02*
X143920877Y-38877419D01*
X143254211Y-38877419D02*
X143063735Y-38877419D01*
X143063735Y-38877419D02*
X142968497Y-38925038D01*
X142968497Y-38925038D02*
X142873259Y-39020276D01*
X142873259Y-39020276D02*
X142825640Y-39210752D01*
X142825640Y-39210752D02*
X142825640Y-39544085D01*
X142825640Y-39544085D02*
X142873259Y-39734561D01*
X142873259Y-39734561D02*
X142968497Y-39829800D01*
X142968497Y-39829800D02*
X143063735Y-39877419D01*
X143063735Y-39877419D02*
X143254211Y-39877419D01*
X143254211Y-39877419D02*
X143349449Y-39829800D01*
X143349449Y-39829800D02*
X143444687Y-39734561D01*
X143444687Y-39734561D02*
X143492306Y-39544085D01*
X143492306Y-39544085D02*
X143492306Y-39210752D01*
X143492306Y-39210752D02*
X143444687Y-39020276D01*
X143444687Y-39020276D02*
X143349449Y-38925038D01*
X143349449Y-38925038D02*
X143254211Y-38877419D01*
X147063734Y-37289800D02*
X146920877Y-37337419D01*
X146920877Y-37337419D02*
X146682782Y-37337419D01*
X146682782Y-37337419D02*
X146587544Y-37289800D01*
X146587544Y-37289800D02*
X146539925Y-37242180D01*
X146539925Y-37242180D02*
X146492306Y-37146942D01*
X146492306Y-37146942D02*
X146492306Y-37051704D01*
X146492306Y-37051704D02*
X146539925Y-36956466D01*
X146539925Y-36956466D02*
X146587544Y-36908847D01*
X146587544Y-36908847D02*
X146682782Y-36861228D01*
X146682782Y-36861228D02*
X146873258Y-36813609D01*
X146873258Y-36813609D02*
X146968496Y-36765990D01*
X146968496Y-36765990D02*
X147016115Y-36718371D01*
X147016115Y-36718371D02*
X147063734Y-36623133D01*
X147063734Y-36623133D02*
X147063734Y-36527895D01*
X147063734Y-36527895D02*
X147016115Y-36432657D01*
X147016115Y-36432657D02*
X146968496Y-36385038D01*
X146968496Y-36385038D02*
X146873258Y-36337419D01*
X146873258Y-36337419D02*
X146635163Y-36337419D01*
X146635163Y-36337419D02*
X146492306Y-36385038D01*
X146158972Y-36337419D02*
X145920877Y-37337419D01*
X145920877Y-37337419D02*
X145730401Y-36623133D01*
X145730401Y-36623133D02*
X145539925Y-37337419D01*
X145539925Y-37337419D02*
X145301830Y-36337419D01*
X144349449Y-37242180D02*
X144397068Y-37289800D01*
X144397068Y-37289800D02*
X144539925Y-37337419D01*
X144539925Y-37337419D02*
X144635163Y-37337419D01*
X144635163Y-37337419D02*
X144778020Y-37289800D01*
X144778020Y-37289800D02*
X144873258Y-37194561D01*
X144873258Y-37194561D02*
X144920877Y-37099323D01*
X144920877Y-37099323D02*
X144968496Y-36908847D01*
X144968496Y-36908847D02*
X144968496Y-36765990D01*
X144968496Y-36765990D02*
X144920877Y-36575514D01*
X144920877Y-36575514D02*
X144873258Y-36480276D01*
X144873258Y-36480276D02*
X144778020Y-36385038D01*
X144778020Y-36385038D02*
X144635163Y-36337419D01*
X144635163Y-36337419D02*
X144539925Y-36337419D01*
X144539925Y-36337419D02*
X144397068Y-36385038D01*
X144397068Y-36385038D02*
X144349449Y-36432657D01*
X143444687Y-37337419D02*
X143920877Y-37337419D01*
X143920877Y-37337419D02*
X143920877Y-36337419D01*
X143111353Y-37337419D02*
X143111353Y-36337419D01*
X142539925Y-37337419D02*
X142968496Y-36765990D01*
X142539925Y-36337419D02*
X143111353Y-36908847D01*
X145222306Y-31305038D02*
X145317544Y-31257419D01*
X145317544Y-31257419D02*
X145460401Y-31257419D01*
X145460401Y-31257419D02*
X145603258Y-31305038D01*
X145603258Y-31305038D02*
X145698496Y-31400276D01*
X145698496Y-31400276D02*
X145746115Y-31495514D01*
X145746115Y-31495514D02*
X145793734Y-31685990D01*
X145793734Y-31685990D02*
X145793734Y-31828847D01*
X145793734Y-31828847D02*
X145746115Y-32019323D01*
X145746115Y-32019323D02*
X145698496Y-32114561D01*
X145698496Y-32114561D02*
X145603258Y-32209800D01*
X145603258Y-32209800D02*
X145460401Y-32257419D01*
X145460401Y-32257419D02*
X145365163Y-32257419D01*
X145365163Y-32257419D02*
X145222306Y-32209800D01*
X145222306Y-32209800D02*
X145174687Y-32162180D01*
X145174687Y-32162180D02*
X145174687Y-31828847D01*
X145174687Y-31828847D02*
X145365163Y-31828847D01*
X144746115Y-32257419D02*
X144746115Y-31257419D01*
X144746115Y-31257419D02*
X144174687Y-32257419D01*
X144174687Y-32257419D02*
X144174687Y-31257419D01*
X143698496Y-32257419D02*
X143698496Y-31257419D01*
X143698496Y-31257419D02*
X143460401Y-31257419D01*
X143460401Y-31257419D02*
X143317544Y-31305038D01*
X143317544Y-31305038D02*
X143222306Y-31400276D01*
X143222306Y-31400276D02*
X143174687Y-31495514D01*
X143174687Y-31495514D02*
X143127068Y-31685990D01*
X143127068Y-31685990D02*
X143127068Y-31828847D01*
X143127068Y-31828847D02*
X143174687Y-32019323D01*
X143174687Y-32019323D02*
X143222306Y-32114561D01*
X143222306Y-32114561D02*
X143317544Y-32209800D01*
X143317544Y-32209800D02*
X143460401Y-32257419D01*
X143460401Y-32257419D02*
X143698496Y-32257419D01*
X145888972Y-28717419D02*
X145555639Y-29717419D01*
X145555639Y-29717419D02*
X145222306Y-28717419D01*
X144555639Y-29193609D02*
X144412782Y-29241228D01*
X144412782Y-29241228D02*
X144365163Y-29288847D01*
X144365163Y-29288847D02*
X144317544Y-29384085D01*
X144317544Y-29384085D02*
X144317544Y-29526942D01*
X144317544Y-29526942D02*
X144365163Y-29622180D01*
X144365163Y-29622180D02*
X144412782Y-29669800D01*
X144412782Y-29669800D02*
X144508020Y-29717419D01*
X144508020Y-29717419D02*
X144888972Y-29717419D01*
X144888972Y-29717419D02*
X144888972Y-28717419D01*
X144888972Y-28717419D02*
X144555639Y-28717419D01*
X144555639Y-28717419D02*
X144460401Y-28765038D01*
X144460401Y-28765038D02*
X144412782Y-28812657D01*
X144412782Y-28812657D02*
X144365163Y-28907895D01*
X144365163Y-28907895D02*
X144365163Y-29003133D01*
X144365163Y-29003133D02*
X144412782Y-29098371D01*
X144412782Y-29098371D02*
X144460401Y-29145990D01*
X144460401Y-29145990D02*
X144555639Y-29193609D01*
X144555639Y-29193609D02*
X144888972Y-29193609D01*
X143888972Y-28717419D02*
X143888972Y-29526942D01*
X143888972Y-29526942D02*
X143841353Y-29622180D01*
X143841353Y-29622180D02*
X143793734Y-29669800D01*
X143793734Y-29669800D02*
X143698496Y-29717419D01*
X143698496Y-29717419D02*
X143508020Y-29717419D01*
X143508020Y-29717419D02*
X143412782Y-29669800D01*
X143412782Y-29669800D02*
X143365163Y-29622180D01*
X143365163Y-29622180D02*
X143317544Y-29526942D01*
X143317544Y-29526942D02*
X143317544Y-28717419D01*
X142888972Y-29669800D02*
X142746115Y-29717419D01*
X142746115Y-29717419D02*
X142508020Y-29717419D01*
X142508020Y-29717419D02*
X142412782Y-29669800D01*
X142412782Y-29669800D02*
X142365163Y-29622180D01*
X142365163Y-29622180D02*
X142317544Y-29526942D01*
X142317544Y-29526942D02*
X142317544Y-29431704D01*
X142317544Y-29431704D02*
X142365163Y-29336466D01*
X142365163Y-29336466D02*
X142412782Y-29288847D01*
X142412782Y-29288847D02*
X142508020Y-29241228D01*
X142508020Y-29241228D02*
X142698496Y-29193609D01*
X142698496Y-29193609D02*
X142793734Y-29145990D01*
X142793734Y-29145990D02*
X142841353Y-29098371D01*
X142841353Y-29098371D02*
X142888972Y-29003133D01*
X142888972Y-29003133D02*
X142888972Y-28907895D01*
X142888972Y-28907895D02*
X142841353Y-28812657D01*
X142841353Y-28812657D02*
X142793734Y-28765038D01*
X142793734Y-28765038D02*
X142698496Y-28717419D01*
X142698496Y-28717419D02*
X142460401Y-28717419D01*
X142460401Y-28717419D02*
X142317544Y-28765038D01*
X145888972Y-26177419D02*
X145555639Y-27177419D01*
X145555639Y-27177419D02*
X145222306Y-26177419D01*
X144936591Y-27129800D02*
X144793734Y-27177419D01*
X144793734Y-27177419D02*
X144555639Y-27177419D01*
X144555639Y-27177419D02*
X144460401Y-27129800D01*
X144460401Y-27129800D02*
X144412782Y-27082180D01*
X144412782Y-27082180D02*
X144365163Y-26986942D01*
X144365163Y-26986942D02*
X144365163Y-26891704D01*
X144365163Y-26891704D02*
X144412782Y-26796466D01*
X144412782Y-26796466D02*
X144460401Y-26748847D01*
X144460401Y-26748847D02*
X144555639Y-26701228D01*
X144555639Y-26701228D02*
X144746115Y-26653609D01*
X144746115Y-26653609D02*
X144841353Y-26605990D01*
X144841353Y-26605990D02*
X144888972Y-26558371D01*
X144888972Y-26558371D02*
X144936591Y-26463133D01*
X144936591Y-26463133D02*
X144936591Y-26367895D01*
X144936591Y-26367895D02*
X144888972Y-26272657D01*
X144888972Y-26272657D02*
X144841353Y-26225038D01*
X144841353Y-26225038D02*
X144746115Y-26177419D01*
X144746115Y-26177419D02*
X144508020Y-26177419D01*
X144508020Y-26177419D02*
X144365163Y-26225038D01*
X143746115Y-26701228D02*
X143746115Y-27177419D01*
X144079448Y-26177419D02*
X143746115Y-26701228D01*
X143746115Y-26701228D02*
X143412782Y-26177419D01*
X143127067Y-27129800D02*
X142984210Y-27177419D01*
X142984210Y-27177419D02*
X142746115Y-27177419D01*
X142746115Y-27177419D02*
X142650877Y-27129800D01*
X142650877Y-27129800D02*
X142603258Y-27082180D01*
X142603258Y-27082180D02*
X142555639Y-26986942D01*
X142555639Y-26986942D02*
X142555639Y-26891704D01*
X142555639Y-26891704D02*
X142603258Y-26796466D01*
X142603258Y-26796466D02*
X142650877Y-26748847D01*
X142650877Y-26748847D02*
X142746115Y-26701228D01*
X142746115Y-26701228D02*
X142936591Y-26653609D01*
X142936591Y-26653609D02*
X143031829Y-26605990D01*
X143031829Y-26605990D02*
X143079448Y-26558371D01*
X143079448Y-26558371D02*
X143127067Y-26463133D01*
X143127067Y-26463133D02*
X143127067Y-26367895D01*
X143127067Y-26367895D02*
X143079448Y-26272657D01*
X143079448Y-26272657D02*
X143031829Y-26225038D01*
X143031829Y-26225038D02*
X142936591Y-26177419D01*
X142936591Y-26177419D02*
X142698496Y-26177419D01*
X142698496Y-26177419D02*
X142555639Y-26225038D01*
M02*
